#!OML:ASF H:\ManfredObstacles\Project 1\Capture day 1\Session 1\Male.ASF
:FULLY-SPECIFIED
:DEGREES
699
root -1.52175 16.4935 -13.843 -173.261 -0.315481 -179.539
lowerback -4.62167 -1.0991 -1.97639
upperback 3.89051 -1.44148 0.565576
thorax 6.71424 -0.855185 1.54489
lowerneck 0.342199 -1.3506 -7.36432
upperneck -9.31933 -0.856177 9.81545
head -2.70711 -0.335445 4.20338
rclavicle 9.93923e-015 -4.96962e-016
rhumerus -33.3871 -22.1232 -78.6158
rradius 26.5592
rwrist 35.3929
rhand 1.27758 -3.24906
rfingers 7.12502
rthumb 26.8135 -31.3682
lclavicle 9.93923e-015 -4.96962e-016
lhumerus -28.5372 31.3343 72.0167
lradius 14.317
lwrist -45.0352
lhand -8.13245 6.7424
lfingers 7.12502
lthumb 17.7814 35.9494
rfemur -7.98361 -4.68535 24.6846
rtibia 24.7914
rfoot 156.273 -167.012
rtoes 16.833
lfemur -34.9342 -2.38114 -17.3731
ltibia 36.0485
lfoot -1.95317 0.959576
ltoes 0.943976
700
root -1.52366 16.4934 -14.0195 -172.761 -0.149575 -179.474
lowerback -5.26565 -0.987044 -1.98974
upperback 3.75922 -1.26422 0.580746
thorax 6.94004 -0.763158 1.57857
lowerneck 0.389402 -1.33361 -7.41493
upperneck -9.28102 -0.848151 9.78422
head -2.70453 -0.33213 4.20203
rclavicle -5.34234e-015 2.68359e-015
rhumerus -32.7465 -21.9132 -79.1222
rradius 26.457
rwrist 35.6017
rhand 1.20485 -3.21046
rfingers 7.12502
rthumb 26.7439 -31.3403
lclavicle -5.34234e-015 2.68359e-015
lhumerus -30.3218 34.0957 69.4979
lradius 13.6593
lwrist -47.4325
lhand -8.15201 6.53829
lfingers 7.12502
lthumb 17.7626 35.747
rfemur -7.59114 -4.61529 24.7304
rtibia 24.2211
rfoot 156.325 -166.852
rtoes 16.5192
lfemur -35.1452 -2.26802 -17.2027
ltibia 32.1625
lfoot -0.809662 0.263
ltoes 1.53593
701
root -1.53845 16.4983 -14.1993 -171.724 0.26929 -180.504
lowerback -6.45101 -1.03809 -3.13279
upperback 3.46439 -1.06971 0.337362
thorax 7.32745 -0.669007 1.98029
lowerneck 0.418227 -1.29175 -7.41133
upperneck -9.2279 -0.816743 9.64236
head -2.69822 -0.316428 4.1567
rclavicle 1.15792e-014 6.95746e-016
rhumerus -32.0528 -21.4928 -79.6152
rradius 26.2818
rwrist 35.8479
rhand 1.15846 -3.14007
rfingers 7.12502
rthumb 26.6995 -31.2766
lclavicle 1.15792e-014 6.95746e-016
lhumerus -32.4603 37.1789 66.6232
lradius 13.0938
lwrist -50.1969
lhand -8.13412 6.38974
lfingers 7.12502
lthumb 17.7798 35.5969
rfemur -7.89196 -4.75196 23.5438
rtibia 23.7585
rfoot 156.195 -166.46
rtoes 15.7638
lfemur -35.662 -2.22569 -18.2009
ltibia 28.1183
lfoot 0.331296 -0.206892
ltoes 3.6383
702
root -1.5511 16.483 -14.3829 -170.965 0.567707 -180.151
lowerback -7.24115 -0.89032 -2.82419
upperback 3.14919 -0.902767 0.395674
thorax 7.43181 -0.578702 1.88246
lowerneck 0.520451 -1.26241 -7.29967
upperneck -9.08197 -0.813625 9.5127
head -2.67473 -0.322638 4.09713
rclavicle -4.39811e-015 -1.98785e-016
rhumerus -31.6035 -20.9207 -80.1687
rradius 26.1668
rwrist 35.8225
rhand 1.19113 -3.25407
rfingers 7.12502
rthumb 26.7308 -31.3859
lclavicle -4.39811e-015 -1.98785e-016
lhumerus -34.8191 39.5827 63.5991
lradius 12.6625
lwrist -52.6569
lhand -8.0358 6.43556
lfingers 7.12502
lthumb 17.8744 35.6341
rfemur -7.85052 -4.60257 23.8693
rtibia 23.326
rfoot 156.186 -166.134
rtoes 16.6436
lfemur -35.7086 -1.8729 -17.7629
ltibia 24.0715
lfoot 1.13077 -0.645734
ltoes 4.33441
703
root -1.56481 16.4796 -14.5932 -170.949 0.75055 -180.203
lowerback -7.55096 -0.74599 -2.76328
upperback 3.02184 -0.700877 0.228339
thorax 7.45983 -0.473122 1.69764
lowerneck 0.677618 -1.27381 -7.1143
upperneck -8.84218 -0.87605 9.39743
head -2.62734 -0.367318 4.03048
rclavicle 9.54166e-015 7.7526e-015
rhumerus -31.4839 -20.7043 -80.6303
rradius 26.2076
rwrist 35.9955
rhand 1.33318 -3.42728
rfingers 7.12502
rthumb 26.8667 -31.5382
lclavicle 9.54166e-015 7.7526e-015
lhumerus -37.1407 41.187 60.6066
lradius 12.2475
lwrist -54.6701
lhand -7.79644 6.61635
lfingers 7.12502
lthumb 18.1047 35.7937
rfemur -6.84217 -4.97742 23.6077
rtibia 22.9877
rfoot 155.979 -165.572
rtoes 17.097
lfemur -34.5893 -1.55055 -17.9307
ltibia 19.9629
lfoot 1.56671 -1.09975
ltoes 3.11861
704
root -1.57678 16.4815 -14.7995 -170.785 0.948746 -180.284
lowerback -8.00258 -0.588371 -2.8428
upperback 2.91344 -0.465144 0.124154
thorax 7.59281 -0.360956 1.66362
lowerneck 0.79847 -1.31042 -7.16858
upperneck -8.76703 -0.946919 9.41583
head -2.6188 -0.407789 4.0468
rclavicle -2.60905e-015 -1.88845e-015
rhumerus -31.1631 -20.7581 -80.916
rradius 26.0952
rwrist 36.5476
rhand 1.40043 -3.53412
rfingers 7.12502
rthumb 26.931 -31.6352
lclavicle -2.60905e-015 -1.88845e-015
lhumerus -39.3475 42.6662 57.8135
lradius 11.9063
lwrist -56.6403
lhand -7.593 6.71424
lfingers 7.12502
lthumb 18.3004 35.8734
rfemur -5.9353 -5.23367 23.3471
rtibia 22.4879
rfoot 155.83 -165.299
rtoes 17.0877
lfemur -33.632 -1.16056 -18.1423
ltibia 16.0976
lfoot 2.27503 -1.66754
ltoes 1.90292
705
root -1.59483 16.4732 -14.987 -170.567 1.45955 -180.256
lowerback -8.28103 -0.448632 -2.99454
upperback 2.83441 -0.255248 0.116929
thorax 7.65978 -0.266651 1.77138
lowerneck 0.672481 -1.20579 -7.20285
upperneck -8.74035 -0.787506 9.4952
head -2.60244 -0.324069 4.07248
rclavicle -2.28602e-015 -3.77691e-015
rhumerus -30.4518 -20.2662 -81.416
rradius 25.8388
rwrist 36.9815
rhand 1.4612 -3.60838
rfingers 7.12502
rthumb 26.9892 -31.7004
lclavicle -2.28602e-015 -3.77691e-015
lhumerus -41.392 43.7488 55.5113
lradius 11.8857
lwrist -57.8178
lhand -7.28388 6.83344
lfingers 7.12502
lthumb 18.5978 35.9644
rfemur -5.21478 -4.93737 23.1981
rtibia 21.9435
rfoot 155.623 -165.187
rtoes 18.0686
lfemur -32.561 -0.660603 -18.2015
ltibia 12.2568
lfoot 2.88146 -1.92626
ltoes 0.468921
706
root -1.61882 16.4655 -15.1962 -170.288 1.99714 -180.485
lowerback -8.89524 -0.316448 -3.33697
upperback 2.78469 -0.010593 0.0168644
thorax 7.95075 -0.165761 1.89571
lowerneck 0.457644 -1.18118 -7.17791
upperneck -8.5844 -0.753305 9.46813
head -2.52404 -0.301312 4.05617
rclavicle -1.98785e-016 -1.19271e-015
rhumerus -29.8594 -19.6434 -81.9139
rradius 25.7144
rwrist 37.2427
rhand 1.54177 -3.56433
rfingers 7.12502
rthumb 27.0663 -31.6444
lclavicle -1.98785e-016 -1.19271e-015
lhumerus -43.4883 44.8041 53.1476
lradius 11.8931
lwrist -59.0286
lhand -6.92685 6.89316
lfingers 7.12502
lthumb 18.9412 35.9909
rfemur -4.53024 -4.76479 22.6991
rtibia 21.4549
rfoot 155.399 -164.803
rtoes 19.5433
lfemur -31.3283 -0.0397492 -18.7123
ltibia 8.59827
lfoot 3.77935 -2.30756
ltoes -1.19125
707
root -1.64123 16.4528 -15.4063 -170.038 2.46957 -180.837
lowerback -9.42874 -0.206788 -3.83713
upperback 2.71413 0.231092 -0.127729
thorax 8.17148 -0.0716088 2.06457
lowerneck 0.356213 -1.19901 -7.22321
upperneck -8.55722 -0.76494 9.54184
head -2.49708 -0.303469 4.08564
rclavicle -3.57812e-015 1.68967e-014
rhumerus -29.3587 -19.2151 -82.3382
rradius 25.5651
rwrist 37.6698
rhand 1.50737 -3.40869
rfingers 7.12502
rthumb 27.0334 -31.4939
lclavicle -3.57812e-015 1.68967e-014
lhumerus -46.2314 46.5511 49.7519
lradius 11.7515
lwrist -61.3159
lhand -6.81675 6.60421
lfingers 7.12502
lthumb 19.0471 35.6916
rfemur -3.84452 -4.50307 22.0889
rtibia 21.0409
rfoot 156.096 -164.852
rtoes 17.1576
lfemur -29.7881 0.483862 -19.3616
ltibia 4.83615
lfoot 5.26416 -2.57545
ltoes -2.55609
708
root -1.66939 16.4333 -15.6108 -169.826 3.01455 -180.972
lowerback -9.74156 -0.0142255 -4.06968
upperback 2.6021 0.539694 -0.238569
thorax 8.21199 0.0709757 2.13056
lowerneck 0.142933 -1.26392 -7.20617
upperneck -8.46231 -0.839087 9.57621
head -2.42691 -0.334117 4.09218
rclavicle -5.46658e-015 3.37934e-015
rhumerus -28.9166 -18.9244 -82.6784
rradius 25.3845
rwrist 38.1435
rhand 1.33586 -3.20199
rfingers 7.12502
rthumb 26.8693 -31.3126
lclavicle -5.46658e-015 3.37934e-015
lhumerus -48.9673 48.0268 46.3581
lradius 11.5304
lwrist -63.5722
lhand -6.82429 6.29881
lfingers 7.12502
lthumb 19.0398 35.3869
rfemur -3.17729 -4.13307 21.677
rtibia 20.7409
rfoot 156.136 -164.883
rtoes 15.1787
lfemur -27.3503 1.13361 -19.7856
ltibia -2.8625e-014
lfoot 7.22705 -2.34074
ltoes -4.02972
709
root -1.69173 16.4101 -15.8445 -169.992 3.04733 -181.293
lowerback -10.0023 0.0291491 -4.52871
upperback 2.66267 0.686659 -0.347507
thorax 8.41837 0.118619 2.30101
lowerneck 0.174836 -1.36219 -7.36126
upperneck -8.57418 -0.953993 9.71797
head -2.45251 -0.388835 4.16509
rclavicle 2.68359e-015 6.16232e-015
rhumerus -28.5416 -18.6903 -82.9336
rradius 25.244
rwrist 38.4507
rhand 1.13789 -3.11757
rfingers 7.12502
rthumb 26.6798 -31.2571
lclavicle 2.68359e-015 6.16232e-015
lhumerus -50.6557 48.4586 44.4022
lradius 11.3884
lwrist -64.47
lhand -6.57677 6.35441
lfingers 7.12502
lthumb 19.2778 35.4189
rfemur -1.95214 -4.21372 21.0562
rtibia 20.5123
rfoot 155.867 -164.78
rtoes 13.9775
lfemur -26.6372 1.20176 -20.3657
ltibia -6.36111e-015
lfoot 7.12621 -2.56741
ltoes -5.31375
710
root -1.73091 16.3847 -16.0537 -169.759 3.47 -181.149
lowerback -10.2296 0.0650866 -4.54112
upperback 2.46684 0.740354 -0.344329
thorax 8.33367 0.147994 2.32212
lowerneck 0.234379 -1.25002 -7.32322
upperneck -8.57903 -0.794192 9.81059
head -2.47703 -0.313919 4.18496
rclavicle -1.68967e-015 1.17283e-014
rhumerus -28.3383 -17.9488 -83.374
rradius 25.2564
rwrist 38.5279
rhand 1.06098 -3.1185
rfingers 7.12502
rthumb 26.6062 -31.2693
lclavicle -1.68967e-015 1.17283e-014
lhumerus -52.3074 48.4432 42.7957
lradius 11.475
lwrist -64.4906
lhand -6.19583 6.41735
lfingers 7.12502
lthumb 19.6441 35.4448
rfemur -1.33612 -3.38796 20.9624
rtibia 20.2972
rfoot 156.101 -164.993
rtoes 13.3981
lfemur -26.1907 1.72652 -20.5821
ltibia -5.08889e-014
lfoot 7.96516 -2.62498
ltoes -4.85595
